<?xml version="1.0" encoding="UTF-8"?><svg id="Layer_1" xmlns="http://www.w3.org/2000/svg" viewBox="0 0 500 500"><path d="m443.06,150.85c-18.77-4.12-37.4,7.81-41.52,26.58-2.01,9.15-.22,18.27,4.33,25.69l-106.13,83.2c-4.36-3.96-9.73-6.87-15.9-8.22-8.6-1.89-17.15-.43-24.32,3.55l-33.06-42.73c3.73-4.24,6.44-9.45,7.73-15.34,4.12-18.77-7.77-37.39-26.54-41.51-18.77-4.12-37.4,7.81-41.52,26.58-2.14,9.74.05,19.48,5.28,27.13l-83.72,66.96c-4.15-3.42-9.15-5.96-14.76-7.19-18.73-4.11-37.36,7.82-41.48,26.59-4.12,18.77,7.82,37.36,26.55,41.47,18.77,4.12,37.39-7.77,41.51-26.54,1.96-8.91.28-17.8-4-25.12l84.33-67.52c3.73,2.71,8.07,4.69,12.86,5.74,8.64,1.9,17.28.42,24.42-3.62l32.99,42.68c-3.74,4.28-6.49,9.52-7.79,15.45-4.12,18.77,7.82,37.36,26.59,41.48,18.77,4.12,37.35-7.78,41.47-26.55,1.84-8.36.5-16.73-3.23-23.76l106.72-83.65c4.03,3.19,8.86,5.57,14.24,6.75,18.77,4.12,37.4-7.81,41.52-26.58s-7.81-37.4-26.58-41.52ZM60.59,351.81c-12.25-2.69-20.04-14.85-17.35-27.1,2.7-12.29,14.86-20.08,27.11-17.39s20.08,14.86,17.38,27.15-14.85,20.04-27.14,17.34Zm134.7-113.44c-12.29-2.7-20.07-14.9-17.38-27.15,2.69-12.25,14.86-20.08,27.15-17.38,12.25,2.69,20.03,14.89,17.34,27.14-2.69,12.25-14.86,20.08-27.11,17.39Zm76.2,95.99c-12.29-2.7-20.08-14.86-17.39-27.11s14.86-20.08,27.15-17.38c12.25,2.69,20.04,14.85,17.34,27.14-2.69,12.25-14.85,20.04-27.1,17.35Zm159.21-127.2c-12.29-2.7-20.07-14.9-17.38-27.15,2.69-12.25,14.86-20.08,27.15-17.38,12.25,2.69,20.07,14.9,17.38,27.15-2.69,12.25-14.9,20.07-27.15,17.38Z" style="fill:#d8be79;"/></svg>