<?xml version="1.0" encoding="UTF-8"?><svg id="Layer_1" xmlns="http://www.w3.org/2000/svg" viewBox="0 0 500 500"><g><g><path d="m409.94,278.84c0,1.27-.47,2.39-1.24,3.17s-1.93,1.27-3.17,1.28l-142.65.03c-2.55,0-4.6-2.05-4.6-4.6,0-1.24.47-2.36,1.27-3.17s1.9-1.24,3.17-1.24l142.62-.03c2.55,0,4.6,2.05,4.6,4.57Z" style="fill:#dac07a; isolation:isolate; opacity:.4;"/><path d="m380.63,255.25c0,1.27-.47,2.36-1.27,3.17s-1.9,1.24-3.17,1.24l-113.31.02c-2.7,0-4.6-2.05-4.6-4.57,0-1.27.47-2.39,1.27-3.17.78-.81,1.9-1.27,3.17-1.28l113.31-.02c2.55,0,4.6,2.05,4.6,4.6Z" style="fill:#dac07a; isolation:isolate; opacity:.4;"/><path d="m400.54,231.62c0,1.27-.54,2.36-1.48,3.17s-2.2,1.24-3.69,1.24l-131.75.02c-3.14,0-5.35-2.05-5.35-4.57,0-1.27.54-2.39,1.48-3.17.9-.81,2.2-1.27,3.69-1.28l131.75-.02c2.96,0,5.35,2.05,5.35,4.6Z" style="fill:#dac07a; isolation:isolate; opacity:.4;"/></g><g><ellipse cx="154.44" cy="227.93" rx="30.45" ry="31.29" style="fill:#dac07a; isolation:isolate; opacity:.4;"/><path d="m218.83,289.02v15.71s-128.75.02-128.75.02v-15.71c0-20.01,14.09-36.56,32.6-39.81,5.72,11.95,17.83,20.14,31.78,20.14,13.91,0,25.86-8.2,31.77-20.15,18.5,3.24,32.61,19.78,32.61,39.8Z" style="fill:#dac07a; isolation:isolate; opacity:.4;"/></g></g><g><path d="m425.63,322.84c-.74,0-1.58,0-2.31-.1-.63-.1-1.16-.42-1.79-.74-.84-.42-1.79-.53-2.63-.52s-1.79.21-2.63.42c-.95.32-1.68.95-2.21,1.79-.32.53-.63.95-1.05,1.37-.11.11-.32.21-.42.11-.84-.32-1.68-.74-2.63-1.05-.21-.11-.53-.32-.74-.53-2.21-1.89-4.73-3.36-7.15-4.83-1.89-1.16-3.78-2.42-5.78-3.57-.32-.21-.53-.53-1.05-.53s-.63.11-.74.63c0,1.05.11,2,.63,2.84.32.63.84,1.16,1.37,1.58s.84,1.05.95,1.79c.11.84.63,1.58,1.26,2.21.32.32.63.74.95,1.16-1.16.11-2.1.32-3.15.11-1.16-.21-2.42-.42-3.36-1.16-.84-.63-1.58-1.26-2.42-2-.21-.21-.42-.42-.74-.42-.21,0-.63,0-.74.11-.11.21-.1.63,0,.84.11.32.42.53.74.84,1.16,1.16,2.52,2,3.99,2.52,1.89.74,3.78.52,5.68.31,1.58-.21,3.26-.63,4.83-.74,1.37-.11,2.63,0,3.99,0,1.47,0,2.63.63,3.78,1.47.42.32,1.16.21,1.58-.32.53-.84,1.05-1.68,1.68-2.42,1.05-1.16,2.31-1.68,3.78-1.26,1.26.32,2.42.74,3.57,1.16.42.11.84,0,1.26.1.11,0,.32,0,.32.11v.32c-.63.95-1.05,1.89-1.16,3.05-.1,1.05-.53,1.89-1.26,2.63-.21.32-.63.53-.84.84-.63.84-1.26,1.68-1.79,2.63-.63,1.05-1.47,2.1-2.42,2.84-1.68,1.26-3.47,2.21-5.67,2.1-.84-.1-1.68-.21-2.52-.31-.32,0-.63-.21-.95-.32.53-.84,1.05-1.58,1.47-2.42.21-.42.32-.84.42-1.26,0-.21.1-.63-.21-.63-.21,0-.63.21-.74.42-.32.53-.53,1.05-.84,1.58-.63,1.26-1.68,2.42-2.84,3.15-.63.42-1.37.95-2.1,1.37-1.58,1.05-3.47,1.68-5.36,2-1.58.21-3.15.53-4.73.63-1.26.11-2.52.21-3.68.21-.95,0-1.89-.31-2.73-.84.95-.63,1.89-1.16,3.05-.84.74.21,1.16-.32,1.47-.84.74-1.05,1.68-1.79,3.05-1.79.21,0,.53-.11.74-.11.74,0,.84-.53,1.05-1.05.32-.84.95-1.47,1.79-1.79.32-.11.74,0,1.05-.11.21-.11.42-.21.63-.42.53-.53.95-1.05,1.47-1.58.32-.32.63-.42,1.05-.32.21,0,.53,0,.74-.21.11-.11.11-.53,0-.63-.11-.21-.42-.32-.63-.32-1.47-.32-2.31.74-3.15,1.68-.42.42-.74.84-1.37.84-1.26,0-1.89.95-2.42,2-.32.63-.63.95-1.37.95-1.37,0-2.52.63-3.26,1.79-.32.53-.74.63-1.37.63-.74.11-1.58.21-2.31.42-.63.21-1.16.74-1.58,1.26-.32.32-.1.95.32,1.16,1.47.95,3.15,1.37,4.94,1.16,2-.21,3.99-.32,5.99-.53,1.89-.21,3.89-.63,5.67-1.47,1.47-.63,2.73-1.68,4.1-2.52.32-.11.53-.32.74-.53h.32c2.31,1.05,4.62.84,7.04.42.63-.11,1.16-.42,1.79-.74,1.16-.63,2.21-1.37,3.15-2.21.84-.84,1.26-1.79,1.89-2.73.53-.74,1.05-1.37,1.58-2,.74-.84,1.37-1.68,1.68-2.73.11-.21.11-.53.1-.84.21-1.26.95-2.31,1.47-3.36.21-.42.32-.84.32-1.26.11-.42-.11-.63-.63-.63h0Zm-18.08,1.26c-2-.1-3.99.21-5.89.63-.11,0-.42-.11-.53-.21-.42-.53-.74-1.05-1.16-1.47-.63-.63-1.05-1.37-1.16-2.31,0-.53-.21-1.05-.74-1.37-.84-.53-1.37-1.37-1.89-2.21-.11-.21-.11-.42-.21-.63l.11-.11c.63.42,1.26.84,1.89,1.26,2.84,1.68,5.57,3.47,8.41,5.15.53.32.95.74,1.58,1.16-.21.11-.32.21-.42.11h0Z" style="fill:#dac07a;"/><path d="m423.95,317.8h-1.89c-1.79.11-3.57.32-5.25.74-1.58.42-3.15.84-4.73,1.26-.53.11-1.05.42-1.58.74-.32.21-.63.53-.53.95s.53.63.95.63c1.16-.11,2.31-.11,3.47-.32,1.89-.32,3.78-.63,5.57-1.16,1.47-.42,2.84-.74,4.1-1.58.21-.11.32-.42.32-.63-.11-.21-.21-.42-.42-.63h0Zm-2.63,1.16c-2.73,1.05-5.67,1.47-8.51,1.89h0v-.11c2.73-.95,5.57-1.47,8.51-1.79,0,0,.11,0,0,0q.11,0,0,0h0Z" style="fill:#dac07a;"/><path d="m390.53,327.26c.32,0,.53-.11.53-.53s-.32-.53-.63-.63c-.63,0-1.26-.1-1.89-.21-.95-.21-1.79-.74-2.52-1.26-.53-.32-.95-.74-1.37-1.16l-.11-.11c-.32,0-.63-.1-.95.11-.11,0-.11.53,0,.74,0,.21.21.42.42.53.95.84,1.89,1.58,3.05,2.1.42.21.74.32,1.16.42h2.31Z" style="fill:#dac07a;"/><path d="m386.64,331.25c1.26.42,2.52.42,3.68-.11.42-.21.74-.32,1.16-.53.32-.21.42-.63.32-.95-.11-.11-.42-.32-.63-.21-.53.21-1.16.42-1.68.63-1.05.42-2,.21-2.94-.1-.53-.21-1.16-.42-1.68-.53-.11,0-.42.21-.53.32-.11.32-.1.63.21.74l2.1.74h0Z" style="fill:#dac07a;"/></g><path d="m425.49,132.42l-351.02.07c-11.59,0-21,9.4-21,20.99l.04,194.45c0,11.59,9.42,21,21.01,21l351.02-.07c11.61,0,21-9.42,21-21.01l-.04-194.45c0-11.59-9.4-20.99-21.01-20.99Z" style="fill:none; stroke:#dac07a; stroke-miterlimit:10; stroke-width:5px;"/></svg>