<?xml version="1.0" encoding="UTF-8"?><svg id="Layer_1" xmlns="http://www.w3.org/2000/svg" xmlns:xlink="http://www.w3.org/1999/xlink" viewBox="0 0 500 500"><defs><clipPath id="clippath"><rect x="8.33" y="8.33" width="483.33" height="483.33" style="fill:none;"/></clipPath></defs><g style="clip-path:url(#clippath);"><path id="Path_11" d="m311.41,178.72c.01,6.74-1.11,13.43-3.33,19.79-2.46,7.16-6.25,13.79-11.15,19.55-22.05,25.91-60.93,29.05-86.84,7-2.52-2.14-4.86-4.48-7-7-21.62-26.01-18.07-64.62,7.94-86.24,26.01-21.62,64.62-18.07,86.24,7.94,9.1,10.95,14.11,24.73,14.15,38.97" style="fill:#d8be79;"/><path id="Path_12" d="m340.4,268v76.2c-.06,21.03-17.09,38.07-38.12,38.12h-104.55c-21.03-.06-38.07-17.09-38.12-38.12v-76.2c.06-21.03,17.09-38.07,38.12-38.12h3.23c22.83,27.08,63.3,30.53,90.38,7.7,2.78-2.34,5.35-4.92,7.7-7.7h3.23c21.03.05,38.07,17.09,38.13,38.12" style="fill:#d8be79;"/></g></svg>