<?xml version="1.0" encoding="UTF-8"?><svg id="Layer_1" xmlns="http://www.w3.org/2000/svg" viewBox="0 0 500 500"><defs><style>.cls-1{fill:#d8be79;}</style></defs><g><path class="cls-1" d="M322.07,176.23c-9.24-16.47-23.34-27.17-41.34-32.68-14.21-4.35-28.76-5.12-43.47-3.59-11.38,1.18-22.24,4.17-32.08,10.11-16.7,10.09-28.22,24.16-32.45,43.56-.69,3.17-1,6.43-1.51,9.77,13.03,1.61,25.75,3.17,38.67,4.77,.21-.76,.37-1.42,.58-2.06,1.27-3.8,2.28-7.71,3.89-11.36,4.79-10.89,12.75-18.44,24.34-21.73,8.73-2.48,17.52-2.33,26.26,.04,6.3,1.71,11.63,5.08,15.95,9.99,9.52,10.82,9.18,26.35-1.01,36.52-4.19,4.18-8.73,8.01-13.25,11.84-7.43,6.3-15.08,12.34-21.73,19.53-7.02,7.58-11.87,16.21-13.84,26.42-1.7,8.78-1.63,17.63-1.34,26.49,0,.08,.09,.16,.18,.31h37.7c.26-4.74,.45-9.39,.79-14.03,.46-6.17,2.55-11.66,6.8-16.34,5.26-5.8,11.32-10.69,17.21-15.77,8.94-7.72,17.72-15.6,25.16-24.85,13.94-17.34,14.22-39.57,4.49-56.91Zm-92.28,184.53h38.57v-38.67h-38.57v38.67Z"/><path class="cls-1" d="M317.57,233.14c-7.44,9.25-16.22,17.13-25.16,24.85-5.89,5.09-11.95,9.97-17.21,15.77-4.24,4.69-6.33,10.17-6.8,16.34-.35,4.64-.53,9.28-.79,14.03h-37.7c-.09-.15-.18-.22-.18-.31-.28-8.87-.35-17.71,1.34-26.49,1.97-10.21,6.82-18.84,13.84-26.42,6.65-7.18,14.3-13.23,21.73-19.53,4.52-3.83,9.06-7.67,13.25-11.84,10.19-10.17,10.52-25.7,1.01-36.52-4.32-4.91-9.65-8.28-15.95-9.99-8.73-2.36-17.53-2.51-26.26-.04-11.59,3.29-19.55,10.83-24.34,21.73-1.61,3.65-2.62,7.56-3.89,11.36-.21,.64-.37,1.3-.58,2.06-12.93-1.59-25.64-3.16-38.67-4.77,.51-3.33,.81-6.59,1.51-9.77,4.24-19.4,15.75-33.47,32.45-43.56,9.84-5.94,20.7-8.92,32.08-10.11,14.71-1.53,29.26-.76,43.47,3.59,18.01,5.51,32.1,16.22,41.34,32.68,9.73,17.34,9.45,39.57-4.49,56.91Z"/><rect class="cls-1" x="229.79" y="322.1" width="38.57" height="38.67"/></g><path id="Path_13" class="cls-1" d="M250,485.67c-130.16,0-235.67-105.51-235.67-235.67S119.84,14.33,250,14.33s235.67,105.51,235.67,235.67h0c-.15,130.09-105.57,235.52-235.67,235.67m0-448.11c-117.33,0-212.45,95.12-212.45,212.45s95.12,212.45,212.45,212.45,212.45-95.12,212.45-212.45c-.13-117.28-95.17-212.32-212.45-212.45"/></svg>