<?xml version="1.0" encoding="UTF-8"?><svg id="Layer_1" xmlns="http://www.w3.org/2000/svg" viewBox="0 0 500 500"><defs><style>.cls-1{fill:#d8be79;}</style></defs><g><path class="cls-1" d="M317.26,376.55c-12.94,0-25.87,0-38.8-.02-1.09,0-2.11-.06-3.3-.13-.58-.04-1.21-.07-1.92-.11l-4.28-.2v-69.76h-37.75v69.69l-4.24,.24c-.64,.04-1.23,.08-1.78,.12-1.12,.08-2.17,.16-3.27,.16h-9.68c-18.18,.01-36.36,.02-54.55,0-11.25-.02-17.98-6.81-17.99-18.14v-10.2c-.03-23.9-.05-48.62,.13-72.93,.01-3.62,1.85-7.66,4.45-9.83,16.45-13.67,33.22-27.5,49.44-40.88,16.21-13.38,32.98-27.21,49.41-40.87,4.81-3.99,9.12-3.94,13.98,.17,10.77,9.11,21.86,18.22,32.58,27.04,2.96,2.43,5.91,4.86,8.87,7.29l10.63,8.75c15,12.35,30.5,25.13,45.82,37.6,3.83,3.11,5.53,6.63,5.51,11.41-.11,19.16-.1,38.65-.09,57.49,0,8.08,0,16.15,0,24.23,0,12.34-6.46,18.87-18.67,18.88-8.17,0-16.34,.01-24.51,.01Zm-39.31-9.01c.17,0,.34,0,.51,0,21.1,.02,42.2,.03,63.31,0,7.25,0,9.69-2.51,9.69-9.9h0c0-8.08,0-16.15,0-24.22,0-18.86-.02-38.36,.09-57.55,.01-2.04-.46-2.99-2.19-4.39-15.34-12.5-30.86-25.28-45.87-37.64l-10.63-8.75c-2.95-2.43-5.91-4.86-8.86-7.29-10.75-8.83-21.86-17.97-32.67-27.11-.68-.57-1.08-.83-1.29-.94-.2,.1-.57,.33-1.16,.82-16.44,13.67-33.22,27.5-49.43,40.88-16.21,13.38-32.98,27.21-49.41,40.87-.5,.42-1.2,1.99-1.21,2.97-.17,24.29-.15,48.99-.13,72.87v10.2c.01,6.5,2.63,9.16,9.03,9.17,18.18,.03,36.35,.02,54.52,.01h9.68c.1,0,.2,0,.31,0v-70.2h55.71v70.2Z"/><path class="cls-1" d="M381.04,271.16c-2.6,0-5.3-1.13-8.03-3.4-11.39-9.46-22.75-18.94-34.11-28.42l-31.91-26.61c-18.68-15.57-37.99-31.66-56.94-47.54,0,0,0,0-.01-.01-15.02,12.58-30.32,25.31-45.12,37.63-8.49,7.07-16.99,14.13-25.47,21.21-9,7.5-17.98,15.02-26.97,22.54-8.31,6.96-16.62,13.91-24.95,20.86-6.57,5.45-12.19,4.96-17.7-1.56-.79-.94-1.59-1.88-2.38-2.81-2.19-2.58-4.45-5.24-6.62-7.94-5.02-6.24-4.45-11.79,1.72-16.97,7.55-6.31,15.11-12.6,22.67-18.89,4.38-3.64,8.77-7.29,13.15-10.94,12.26-10.21,24.52-20.42,36.78-30.63,18.89-15.74,37.79-31.48,56.69-47.21,11.25-9.36,25.21-9.36,36.43,.02,6.94,5.8,13.88,11.61,20.82,17.42,5.08,4.25,10.16,8.51,15.24,12.76v-22.26c.01-11.25,3.08-14.33,14.25-14.33h8.09c7.19-.01,14.37-.02,21.55,.02,8.42,.04,12.18,3.84,12.19,12.34,.03,22.53,.05,45.82-.04,68.74,0,1.87,.37,2.51,1.45,3.38,7.92,6.45,15.89,13.08,23.59,19.49,4.01,3.34,8.02,6.68,12.04,10.01,7.71,6.39,5.26,12.76,1.85,16.99h0c-3.28,4.07-6.71,8.08-9.62,11.46-2.68,3.11-5.59,4.67-8.64,4.67Zm-131.04-115.34c1.92,0,3.85,.83,5.82,2.48,18.94,15.87,38.25,31.96,56.92,47.52l31.92,26.61c11.36,9.48,22.71,18.95,34.1,28.41,2.3,1.91,2.47,1.71,4.14-.22,2.87-3.33,6.23-7.26,9.43-11.23h0c1.75-2.17,1.84-2.43-.59-4.44-4.03-3.33-8.04-6.68-12.06-10.02-7.69-6.4-15.63-13.01-23.51-19.43-3.26-2.65-4.78-5.95-4.76-10.38,.1-22.9,.07-46.18,.04-68.69,0-2.12-.28-2.85-.36-3.02-.17-.08-.87-.35-2.89-.36-7.17-.03-14.34-.03-21.51-.02h-8.1c-3.09,0-4.39,.17-4.92,.34-.17,.53-.35,1.86-.35,5.02v41.22l-9.93-8.11c-1.58-1.28-2.82-2.29-4.04-3.32-5.33-4.46-10.67-8.93-16.01-13.4-6.94-5.81-13.87-11.62-20.81-17.41-7.9-6.6-16.99-6.6-24.93,0-18.9,15.73-37.8,31.47-56.69,47.2-12.26,10.21-24.52,20.42-36.78,30.63-4.38,3.65-8.77,7.3-13.16,10.94-7.56,6.28-15.11,12.56-22.65,18.86-1.74,1.46-1.91,2.1-1.91,2.12h0s.05,.64,1.41,2.34c2.1,2.6,4.32,5.22,6.47,7.76,.8,.94,1.6,1.89,2.4,2.83,1.68,1.99,2.38,2.11,2.38,2.11,0,0,.7,.01,2.71-1.66,8.31-6.93,16.62-13.89,24.93-20.84,8.99-7.52,17.98-15.05,26.98-22.55,8.49-7.08,16.98-14.15,25.48-21.22,14.83-12.34,30.17-25.1,45.21-37.7,1.88-1.58,3.75-2.37,5.62-2.37Z"/></g><path id="Path_13" class="cls-1" d="M257.67,485.67c-130.16,0-235.67-105.51-235.67-235.67S127.51,14.33,257.67,14.33s235.67,105.51,235.67,235.67h0c-.15,130.09-105.57,235.52-235.67,235.67m0-448.11c-117.33,0-212.45,95.12-212.45,212.45s95.12,212.45,212.45,212.45,212.45-95.12,212.45-212.45c-.13-117.28-95.17-212.32-212.45-212.45"/></svg>