<?xml version="1.0" encoding="UTF-8"?><svg id="Layer_1" xmlns="http://www.w3.org/2000/svg" viewBox="0 0 500 500"><defs><style>.cls-1{fill:#d8be79;}</style></defs><path class="cls-1" d="M366.12,155.7c-13.44,0-24.38,10.94-24.38,24.38,0,6.55,2.59,12.51,6.8,16.9l-60.03,72.74c-3.57-2.05-7.68-3.23-12.09-3.23-6.16,0-11.78,2.28-16.08,6.07l-28.99-24.24c1.91-3.46,2.98-7.42,2.98-11.64,0-13.44-10.91-24.38-24.35-24.38s-24.38,10.94-24.38,24.38c0,6.97,2.95,13.3,7.68,17.74l-47.16,58.29c-3.35-1.72-7.14-2.7-11.16-2.7-13.41,0-24.35,10.94-24.35,24.38s10.94,24.35,24.35,24.35,24.38-10.91,24.38-24.35c0-6.38-2.47-12.2-6.5-16.56l47.49-58.77c2.95,1.29,6.21,2,9.64,2,6.19,0,11.87-2.31,16.14-6.13l28.93,24.21c-1.91,3.49-3.01,7.48-3.01,11.73,0,13.44,10.94,24.35,24.38,24.35s24.35-10.91,24.35-24.35c0-5.99-2.17-11.5-5.76-15.75l60.37-73.14c3.23,1.57,6.89,2.47,10.74,2.47,13.44,0,24.38-10.94,24.38-24.38s-10.94-24.38-24.38-24.38Zm-231.17,194.61c-8.77,0-15.92-7.14-15.92-15.92s7.14-15.94,15.92-15.94,15.94,7.14,15.94,15.94-7.14,15.92-15.94,15.92Zm75.02-97.69c-8.8,0-15.94-7.17-15.94-15.94s7.14-15.94,15.94-15.94,15.92,7.17,15.92,15.94-7.14,15.94-15.92,15.94Zm66.45,54.16c-8.8,0-15.94-7.14-15.94-15.92s7.14-15.94,15.94-15.94,15.92,7.14,15.92,15.94-7.14,15.92-15.92,15.92Zm89.7-110.76c-8.8,0-15.94-7.17-15.94-15.94s7.14-15.94,15.94-15.94,15.94,7.17,15.94,15.94-7.17,15.94-15.94,15.94Z"/><path id="Path_13" class="cls-1" d="M250,485.67c-130.16,0-235.67-105.51-235.67-235.67S119.84,14.33,250,14.33s235.67,105.51,235.67,235.67h0c-.15,130.09-105.57,235.52-235.67,235.67m0-448.11c-117.33,0-212.45,95.12-212.45,212.45s95.12,212.45,212.45,212.45,212.45-95.12,212.45-212.45c-.13-117.28-95.17-212.32-212.45-212.45"/></svg>