<?xml version="1.0" encoding="UTF-8"?><svg id="Layer_1" xmlns="http://www.w3.org/2000/svg" viewBox="0 0 570.75 760.13"><defs><style>.cls-1,.cls-2,.cls-3{fill:#fff;}.cls-2{opacity:.4;}.cls-4{stroke-width:5px;}.cls-4,.cls-5,.cls-6{fill:none;}.cls-4,.cls-5,.cls-6,.cls-3{stroke:#fff;stroke-miterlimit:10;}.cls-5,.cls-3{stroke-width:6px;}.cls-6{stroke-width:4px;}</style></defs><rect class="cls-1" x="128.9" y="725.78" width="110.73" height="5.67" rx="2.11" ry="2.11"/><g><path class="cls-1" d="M492.1,80.7L204.5,12.97c-11.21-2.64-22.47,4.33-25.12,15.54l-26.12,110.91-7.19,30.54H74.28c-6.18,0-12.03,1.45-17.22,4.05-12.71,6.34-21.47,19.49-21.47,34.64v505.68c0,21.34,17.36,38.69,38.69,38.69h219.96c16.11,0,29.96-9.91,35.77-23.95,1.89-4.55,2.93-9.52,2.93-14.74V256.59l.06,.02,21.53,5.07,89.97,21.19c1.61,.37,3.22,.56,4.84,.56,3.83,0,7.59-1.06,10.94-3.13,4.74-2.93,8.06-7.54,9.34-12.97l38.04-161.52c2.63-11.2-4.35-22.47-15.54-25.11Zm-197.86,662.97H74.28c-16.17,0-29.34-13.16-29.34-29.34V208.65c0-9.74,4.78-18.39,12.12-23.72,4.84-3.53,10.79-5.61,17.22-5.61h219.96c.76,0,1.51,.03,2.25,.09,15.13,1.16,27.08,13.84,27.08,29.25v505.68c0,5.82-1.71,11.26-4.64,15.82-5.23,8.12-14.35,13.51-24.69,13.51ZM499.36,103.86l-38.04,161.52c-.76,3.21-2.72,5.94-5.53,7.69-2.81,1.73-6.13,2.28-9.35,1.51l-91.92-21.65-21.53-5.07-.06-.02v-39.19c0-21.34-17.36-38.69-38.69-38.69H154.8l7.19-30.54,25.66-108.96c1.56-6.65,8.24-10.78,14.88-9.21L490.15,88.98c6.65,1.56,10.78,8.24,9.22,14.88Z"/><path class="cls-3" d="M255.75,174.64v12.19c0,8.55-5.48,15.82-13.14,18.48-2.01,.7-4.18,1.08-6.42,1.08h-107.99c-10.33,0-18.71-8.38-18.71-18.71v-13.04H255.75Z"/><path class="cls-1" d="M286.31,249.17H82.23c-7.52,0-13.61,6.08-13.61,13.61v112.37c0,7.53,6.09,13.61,13.61,13.61h204.08c7.51,0,13.61-6.08,13.61-13.61v-112.37c0-7.53-6.1-13.61-13.61-13.61Zm-163.29,36.13c10.48,0,18.99,8.72,18.99,19.5s-8.5,19.49-18.99,19.49-18.99-8.73-18.99-19.49,8.5-19.5,18.99-19.5Zm40.09,67.33H82.92v-9.77c0-12.43,8.78-22.74,20.33-24.76,3.62,7.44,11.11,12.54,19.76,12.54s16.14-5.1,19.76-12.54c11.54,2.02,20.33,12.33,20.33,24.76v9.77Zm114.6-18.13c-.53,.54-1.26,.86-2.07,.86h-91.85c-1.62,0-2.93-1.31-2.93-2.93,0-.8,.33-1.53,.86-2.06,.53-.53,1.26-.86,2.07-.86h91.85c1.62,0,2.93,1.31,2.93,2.92,0,.81-.32,1.54-.86,2.07Zm-96.84-17.35c0-.81,.33-1.54,.86-2.07,.53-.53,1.26-.86,2.07-.86h72.95c1.62,0,2.93,1.31,2.93,2.93,0,.81-.32,1.54-.86,2.07-.53,.53-1.26,.86-2.07,.86h-72.95c-1.62,0-2.93-1.31-2.93-2.93Zm103.45-13.21c-.53,.54-1.26,.86-2.07,.86h-98.46c-1.62,0-2.93-1.31-2.93-2.93,0-.81,.33-1.54,.86-2.07,.53-.54,1.26-.86,2.07-.86h98.46c1.62,0,2.93,1.31,2.93,2.93,0,.81-.32,1.54-.86,2.07Z"/><path class="cls-2" d="M286.31,249.17H82.23c-7.52,0-13.61,6.08-13.61,13.61v112.37c0,7.53,6.09,13.61,13.61,13.61h204.08c7.51,0,13.61-6.08,13.61-13.61v-112.37c0-7.53-6.1-13.61-13.61-13.61Zm-163.29,36.13c10.48,0,18.99,8.72,18.99,19.5s-8.5,19.49-18.99,19.49-18.99-8.73-18.99-19.49,8.5-19.5,18.99-19.5Zm40.09,67.33H82.92v-9.77c0-12.43,8.78-22.74,20.33-24.76,3.62,7.44,11.11,12.54,19.76,12.54s16.14-5.1,19.76-12.54c11.54,2.02,20.33,12.33,20.33,24.76v9.77Zm114.6-18.13c-.53,.54-1.26,.86-2.07,.86h-91.85c-1.62,0-2.93-1.31-2.93-2.93,0-.8,.33-1.53,.86-2.06,.53-.53,1.26-.86,2.07-.86h91.85c1.62,0,2.93,1.31,2.93,2.92,0,.81-.32,1.54-.86,2.07Zm-96.84-17.35c0-.81,.33-1.54,.86-2.07,.53-.53,1.26-.86,2.07-.86h72.95c1.62,0,2.93,1.31,2.93,2.93,0,.81-.32,1.54-.86,2.07-.53,.53-1.26,.86-2.07,.86h-72.95c-1.62,0-2.93-1.31-2.93-2.93Zm103.45-13.21c-.53,.54-1.26,.86-2.07,.86h-98.46c-1.62,0-2.93-1.31-2.93-2.93,0-.81,.33-1.54,.86-2.07,.53-.54,1.26-.86,2.07-.86h98.46c1.62,0,2.93,1.31,2.93,2.93,0,.81-.32,1.54-.86,2.07Z"/><path class="cls-2" d="M354.52,172.29v89.38l-21.53-5.07-.06-.02v457.74c0,5.22-1.04,10.2-2.93,14.74-2.67,.71-5.47,1.08-8.36,1.08h-2.71c2.93-4.57,4.64-10,4.64-15.82V208.65c0-15.42-11.96-28.1-27.08-29.25-.74-.06-1.5-.09-2.25-.09h-38.5v7.51c0,8.55-5.48,15.82-13.14,18.48-2.01,.7-4.18,1.08-6.42,1.08h-107.99c-10.33,0-18.71-8.38-18.71-18.71v-8.36h-35.2c-6.43,0-12.38,2.08-17.22,5.61v-10.92c5.19-2.59,11.04-4.05,17.22-4.05h71.78l7.19-30.54h168.39c18.15,0,32.87,14.72,32.87,32.87Z"/><g><path class="cls-1" d="M444.89,225.75c-.73,0-1.48,.03-2.2-.1-.59-.11-1.16-.4-1.72-.68-.82-.41-1.71-.47-2.58-.46-.85,.03-1.69,.18-2.51,.43-.91,.27-1.59,.93-2.13,1.71-.33,.47-.66,.93-1.01,1.37-.09,.1-.31,.18-.43,.14-.84-.33-1.68-.69-2.5-1.06-.25-.12-.48-.28-.67-.47-2.13-1.87-4.57-3.26-6.96-4.71-1.88-1.13-3.72-2.3-5.58-3.49-.31-.2-.55-.52-.98-.55-.47-.04-.66,.13-.67,.6-.02,.98,.15,1.93,.6,2.76,.32,.6,.84,1.11,1.36,1.56,.51,.43,.83,1.03,.91,1.69,.12,.83,.58,1.51,1.18,2.11,.32,.32,.58,.71,.92,1.13-1.11,.14-2.07,.32-3.11,.14-1.16-.2-2.3-.42-3.26-1.1-.82-.59-1.57-1.27-2.36-1.89-.21-.17-.43-.38-.68-.44-.23-.05-.64,0-.72,.14-.13,.2-.09,.58,.02,.78,.15,.31,.45,.54,.7,.79,1.08,1.14,2.4,1.89,3.84,2.46,1.82,.73,3.67,.53,5.52,.3,1.58-.19,3.15-.59,4.73-.73,1.28-.11,2.57,.02,3.86,.05,1.38,.04,2.57,.58,3.66,1.4,.44,.33,1.15,.18,1.49-.3,.55-.77,1.02-1.61,1.63-2.32,.97-1.11,2.21-1.65,3.7-1.25,1.18,.32,2.33,.76,3.51,1.09,.37,.1,.79,.04,1.18,.08,.12,0,.29,.05,.34,.13,.05,.08,.03,.26-.04,.35-.6,.88-1.02,1.84-1.15,2.91-.12,.99-.54,1.84-1.18,2.59-.25,.29-.59,.51-.81,.82-.59,.82-1.21,1.62-1.69,2.5-.59,1.06-1.39,2-2.37,2.73-1.62,1.2-3.36,2.19-5.5,2.03-.81-.06-1.62-.16-2.43-.28-.31-.05-.63-.21-.94-.31,.48-.8,.97-1.55,1.39-2.33,.2-.37,.31-.82,.37-1.25,.03-.2,.13-.59-.24-.59-.25,0-.6,.16-.73,.36-.31,.47-.49,1.01-.77,1.51-.66,1.24-1.62,2.3-2.79,3.08-.65,.45-1.33,.88-2,1.32-1.55,1.03-3.32,1.68-5.17,1.9-1.55,.19-3.09,.46-4.64,.61-1.21,.14-2.42,.19-3.62,.17-.93,0-1.83-.27-2.61-.77,.94-.64,1.86-1.11,3.01-.82,.72,.19,1.08-.31,1.41-.79,.71-1.05,1.64-1.72,2.95-1.76,.23,0,.46-.08,.69-.08,.67,0,.82-.52,1.02-.99,.34-.82,.9-1.45,1.75-1.73,.31-.11,.67-.05,.99-.14,.22-.08,.43-.2,.58-.37,.48-.49,.93-1.03,1.41-1.51,.26-.27,.64-.37,.99-.26,.25,.05,.51,0,.71-.16,.11-.09,.09-.48-.02-.63-.13-.18-.4-.29-.62-.34-1.46-.34-2.24,.68-3.03,1.6-.36,.42-.67,.78-1.3,.78-1.26,0-1.84,.94-2.31,1.89-.29,.58-.63,.95-1.28,.95-1.36,0-2.41,.62-3.17,1.69-.34,.46-.76,.6-1.28,.66-.76,.09-1.55,.16-2.24,.44-.59,.24-1.09,.73-1.56,1.18-.31,.3-.14,.88,.26,1.11,1.47,.88,3.06,1.28,4.79,1.11,1.95-.19,3.91-.33,5.86-.56,1.88-.22,3.77-.6,5.48-1.39,1.39-.65,2.64-1.6,3.95-2.41,.26-.15,.48-.34,.74-.48,.11-.05,.23-.05,.34,0,2.23,1.02,4.53,.83,6.84,.4,.59-.1,1.17-.4,1.7-.71,1.08-.64,2.16-1.29,3.07-2.19,.79-.77,1.26-1.73,1.84-2.63,.46-.67,.97-1.31,1.52-1.9,.72-.79,1.31-1.67,1.66-2.68,.09-.25,.06-.52,.09-.78,.16-1.23,.91-2.21,1.4-3.3,.18-.39,.29-.8,.31-1.22,.03-.47-.22-.64-.71-.65Zm-17.59,1.25c-1.93-.09-3.83,.19-5.71,.6-.15,.03-.41-.09-.52-.22-.41-.47-.73-1.01-1.16-1.43-.64-.64-1.05-1.32-1.09-2.25-.02-.52-.25-1.05-.71-1.34-.82-.54-1.34-1.33-1.81-2.14-.09-.17-.12-.39-.18-.58l.13-.07c.6,.41,1.2,.83,1.82,1.22,2.71,1.68,5.44,3.32,8.15,5.01,.5,.31,.95,.69,1.51,1.1-.23,.06-.33,.11-.43,.11Z"/><path class="cls-1" d="M443.29,220.84s-.03-.03-.04-.03c-.7,.02-1.25,0-1.81,.04-1.73,.11-3.45,.29-5.14,.74-1.54,.42-3.1,.78-4.63,1.22-.54,.14-1.06,.42-1.56,.68-.35,.18-.63,.47-.49,.94,.14,.44,.5,.6,.9,.57,1.13-.07,2.27-.1,3.38-.29,1.82-.31,3.63-.66,5.42-1.12,1.38-.36,2.8-.68,4-1.51,.19-.15,.3-.39,.29-.64-.02-.23-.2-.43-.31-.6Zm-2.57,1.16c-2.68,1.02-5.48,1.45-8.3,1.85-.03,0-.04,0-.05-.03,0-.03,0-.05,.03-.06,2.69-.97,5.48-1.52,8.31-1.85,.02,0,.04,0,.05,.03,0,.03,0,.05-.03,.06Z"/><path class="cls-1" d="M410.75,230.05c.29-.01,.54-.12,.51-.56s-.27-.55-.63-.58c-.63-.05-1.26-.06-1.88-.18-.94-.17-1.74-.69-2.49-1.25-.47-.35-.92-.72-1.37-1.09-.05-.04-.09-.11-.14-.11-.31,0-.65-.06-.92,.06-.11,.04-.09,.5-.03,.74,.05,.19,.22,.37,.38,.52,.88,.81,1.81,1.51,2.91,1.99,.37,.16,.76,.26,1.14,.39l2.52,.07Z"/><path class="cls-1" d="M407.01,233.93c1.21,.41,2.4,.42,3.57-.11,.36-.17,.75-.29,1.09-.49,.33-.19,.45-.6,.29-.94-.07-.15-.45-.27-.64-.22-.54,.16-1.08,.36-1.59,.6-.98,.43-1.91,.17-2.84-.15-.54-.2-1.09-.37-1.64-.5-.14-.03-.45,.17-.5,.32-.08,.26-.11,.6,.24,.76l2.02,.75Z"/></g><path class="cls-6" d="M379.77,359.55h-.79c0-8.54-6.92-15.46-15.46-15.46v-.79c8.54,0,15.46-6.92,15.46-15.46h.79c0,8.54,6.92,15.46,15.46,15.46v.79c-8.54,0-15.46,6.92-15.46,15.46Z"/><path class="cls-5" d="M486.64,259.22l-.47-1.08c11.74-5.12,17.11-18.79,11.99-30.53l1.08-.47c5.12,11.74,18.79,17.11,30.53,11.99l.47,1.08c-11.74,5.12-17.11,18.79-11.99,30.53l-1.08,.47c-5.12-11.74-18.79-17.11-30.53-11.99Z"/><path class="cls-4" d="M109.97,147.92h-.95c0-10.38-8.41-18.79-18.79-18.79v-.95c10.38,0,18.79-8.41,18.79-18.79h.95c0,10.38,8.41,18.79,18.79,18.79v.95c-10.38,0-18.79,8.41-18.79,18.79Z"/></g></svg>