<?xml version="1.0" encoding="UTF-8"?><svg id="Layer_1" xmlns="http://www.w3.org/2000/svg" viewBox="0 0 500 500"><defs><style>.cls-1{fill:#d8be79;}</style></defs><g><path class="cls-1" d="M275.37,315.76c.89,1.14,1.78,2.27,2.65,3.41-8.86,9.88-16.82,20.85-26.94,29.24-5.96,4.96-15.2,7.51-23.19,8.13-14.45,1.11-23.38-10.13-19.81-24.38,5.21-20.74,11.48-41.2,17.33-61.77,2.16-7.62,4.56-15.18,6.61-22.82,4.37-16.31,2.59-19.12-14.71-21.98,2.18-2.02,3.57-4.46,5.32-4.75,17.73-2.84,35.5-5.35,53.29-7.89,.7-.11,1.49,.35,2.89,.73-.38,2.02-.62,4.03-1.18,5.97-9.85,34.53-19.85,69.01-29.42,103.62-1.13,4.05,.25,8.78,.46,13.2,4.1-2.18,8.72-3.75,12.15-6.69,3.53-3.03,5.7-7.61,8.88-11.12,1.33-1.48,3.75-1.97,5.65-2.91Z"/><path class="cls-1" d="M292.7,165c.13,12.25-9.64,22.01-22.01,22.01s-22.25-9.91-22.13-21.97c.11-11.88,9.75-21.49,21.7-21.66,12.47-.16,22.32,9.32,22.44,21.62Z"/></g><path id="Path_13" class="cls-1" d="M262.99,486.29c-130.16,0-235.67-105.51-235.67-235.67S132.83,14.96,262.99,14.96s235.67,105.51,235.67,235.67h0c-.15,130.09-105.57,235.52-235.67,235.67m0-448.11c-117.33,0-212.45,95.12-212.45,212.45s95.12,212.45,212.45,212.45,212.45-95.12,212.45-212.45c-.13-117.28-95.17-212.32-212.45-212.45"/></svg>