<?xml version="1.0" encoding="UTF-8"?><svg id="Layer_1" xmlns="http://www.w3.org/2000/svg" viewBox="0 0 500 500"><defs><style>.cls-1{fill:#d8be79;}</style></defs><path class="cls-1" d="M189.16,175.59q1.72,23.15,21.85,23.17c32.81,.01,65.62,0,98.43,0h54.54c-7.27,26.69-14.64,51.17-20.36,76.02-2.5,10.85-7.64,13.12-17.76,12.98-38.35-.52-76.74-.8-115.07,.13-12.47,.3-16.23-4.75-18.77-15.58-8.73-37.27-18.25-74.35-27.61-111.48-4.45-17.64-11.67-23.21-29.94-23.54-7.06-.12-14.56-1.44-21.06,.49-.43,.13-.85,.28-1.26,.46-9.2,4.06-9.57,17.15-.77,22.01,.68,.38,1.39,.67,2.13,.87,7.97,2.1,16.9,.55,26.08,.55,9.49,38.02,18.64,75.14,28.06,112.19,3.8,14.98,5,32.08,23.07,36.93-4.59,5.55-7.34,12.66-7.34,20.41,0,17.7,14.35,32.04,32.04,32.04s32.04-14.34,32.04-32.04c0-6.88-2.17-13.27-5.87-18.49h49.46c-3.7,5.22-5.87,11.61-5.87,18.49,0,17.7,14.35,32.04,32.04,32.04s32.04-14.34,32.04-32.04c0-7.35-2.48-14.13-6.65-19.54,14.61-2.44,20.32-14.24,23.78-28.58,3.77-15.66,8.3-31.15,12.46-46.72,5.38-20.13,10.72-40.28,16.16-60.78H189.16Zm26.25,171.36c-8.69,0-15.74-7.04-15.74-15.74s7.04-15.74,15.74-15.74,15.74,7.05,15.74,15.74-7.04,15.74-15.74,15.74Zm101.8,0c-8.69,0-15.74-7.04-15.74-15.74s7.05-15.74,15.74-15.74,15.74,7.05,15.74,15.74-7.04,15.74-15.74,15.74Z"/><path id="Path_13" class="cls-1" d="M250,485.67c-130.16,0-235.67-105.51-235.67-235.67S119.84,14.33,250,14.33s235.67,105.51,235.67,235.67h0c-.15,130.09-105.57,235.52-235.67,235.67m0-448.11c-117.33,0-212.45,95.12-212.45,212.45s95.12,212.45,212.45,212.45,212.45-95.12,212.45-212.45c-.13-117.28-95.17-212.32-212.45-212.45"/></svg>