<?xml version="1.0" encoding="UTF-8"?><svg id="Layer_1" xmlns="http://www.w3.org/2000/svg" xmlns:xlink="http://www.w3.org/1999/xlink" viewBox="0 0 500 500"><defs><style>.cls-1{fill:#d8be79;}.cls-2{clip-path:url(#clippath);}.cls-3{fill:none;}</style><clipPath id="clippath"><rect class="cls-3" x="14.33" y="14.33" width="471.33" height="471.33"/></clipPath></defs><g class="cls-2"><path id="Path_11" class="cls-1" d="M309.89,180.49c.01,6.57-1.09,13.09-3.24,19.3-2.4,6.98-6.09,13.45-10.88,19.07-21.5,25.27-59.42,28.33-84.69,6.83-2.46-2.09-4.74-4.37-6.83-6.83-21.08-25.36-17.62-63.01,7.74-84.1,25.36-21.08,63.01-17.62,84.1,7.74,8.88,10.68,13.76,24.12,13.8,38.01"/><path id="Path_12" class="cls-1" d="M338.16,267.56v74.3c-.05,20.51-16.67,37.12-37.18,37.18h-101.95c-20.51-.05-37.12-16.67-37.18-37.18v-74.3c.05-20.51,16.67-37.12,37.18-37.18h3.15c22.26,26.41,61.72,29.77,88.13,7.51,2.71-2.28,5.22-4.8,7.51-7.51h3.15c20.51,.05,37.13,16.66,37.18,37.18"/><path id="Path_13" class="cls-1" d="M250,485.67c-130.16,0-235.67-105.51-235.67-235.67S119.84,14.33,250,14.33s235.67,105.51,235.67,235.67h0c-.15,130.09-105.57,235.52-235.67,235.67m0-448.11c-117.33,0-212.45,95.12-212.45,212.45s95.12,212.45,212.45,212.45,212.45-95.12,212.45-212.45c-.13-117.28-95.17-212.32-212.45-212.45"/></g></svg>