<?xml version="1.0" encoding="UTF-8"?><svg id="Layer_1" xmlns="http://www.w3.org/2000/svg" viewBox="0 0 500 500"><defs><style>.cls-1{fill:#d8be79;}</style></defs><path class="cls-1" d="M335.93,329.83h-114.57c-3.24,0-5.86-2.62-5.86-5.86s2.62-5.86,5.86-5.86h114.57c3.24,0,5.86,2.62,5.86,5.86s-2.62,5.86-5.86,5.86Z"/><path class="cls-1" d="M335.93,366.85h-114.57c-3.24,0-5.86-2.62-5.86-5.86s2.62-5.86,5.86-5.86h114.57c3.24,0,5.86,2.62,5.86,5.86s-2.62,5.86-5.86,5.86Z"/><g><path class="cls-1" d="M166.33,268.68c0,3.41-.57,6.68-1.64,9.73-1.22,3.55-3.09,6.81-5.49,9.62-5.54,6.52-13.84,10.67-23.09,10.67s-17.53-4.15-23.08-10.67c-2.09-2.46-3.79-5.26-5-8.3-1.37-3.42-2.12-7.15-2.12-11.05,0-16.59,13.52-30.03,30.2-30.03s30.21,13.45,30.21,30.03Z"/><path class="cls-1" d="M180.6,312.61v37.49c0,10.32-8.44,18.75-18.75,18.75h-51.43c-10.32,0-18.75-8.44-18.75-18.75v-37.49c0-10.32,8.44-18.75,18.75-18.75h1.59c5.8,6.86,14.45,11.22,24.12,11.22s18.34-4.36,24.13-11.22h1.59c10.32,0,18.75,8.44,18.75,18.75Z"/></g><path class="cls-1" d="M332.96,80.33c-63.6,0-115.69,50.19-118.75,113.05H77.97c-16.44,0-29.82,13.37-29.82,29.81v166.65c0,16.44,13.38,29.82,29.82,29.82H350.17c16.44,0,29.81-13.38,29.81-29.82v-81.45c42.24-18.23,71.86-60.31,71.86-109.17,0-65.56-53.33-118.89-118.89-118.89Zm35.31,309.51c0,9.98-8.12,18.1-18.09,18.1H77.97c-9.98,0-18.1-8.12-18.1-18.1V223.2c0-9.97,8.12-18.09,18.1-18.09H214.21c.68,13.73,3.69,26.85,8.66,38.97h-1.51c-3.23,0-5.86,2.62-5.86,5.86s2.62,5.86,5.86,5.86h7.05c5.02,9.23,11.23,17.74,18.42,25.3h-25.47c-3.23,0-5.86,2.62-5.86,5.86s2.62,5.86,5.86,5.86h38.36c20.2,15.84,45.64,25.3,73.24,25.3,12.29,0,24.14-1.87,35.31-5.36v77.09Zm11.72-94.34c-3.78,1.86-7.7,3.5-11.72,4.9-11.06,3.88-22.94,5.99-35.31,5.99-18.91,0-36.71-4.93-52.16-13.58-6.01-3.35-11.67-7.29-16.91-11.72-8.55-7.22-15.97-15.76-21.91-25.3-2.36-3.76-4.48-7.66-6.34-11.72-5.54-11.98-8.94-25.12-9.69-38.97-.11-1.95-.16-3.91-.16-5.88s.06-3.9,.16-5.84c3.03-56.39,49.87-101.33,107.01-101.33s107.17,48.08,107.17,107.17c0,42.23-24.56,78.84-60.15,96.28Z"/><path class="cls-1" d="M406.64,199.22c0,2.44-.98,4.66-2.59,6.26-1.61,1.61-3.82,2.6-6.27,2.6h-57.35v53.66c0,4.9-3.96,8.86-8.85,8.86s-8.86-3.96-8.86-8.86v-53.66h-49.98c-4.9,0-8.86-3.97-8.86-8.86s3.96-8.85,8.86-8.85h49.98v-53.67c0-4.89,3.96-8.86,8.86-8.86,2.45,0,4.65,1,6.26,2.6s2.59,3.81,2.59,6.26v53.67h57.35c4.9,0,8.86,3.96,8.86,8.85Z"/></svg>