<?xml version="1.0" encoding="UTF-8"?><svg id="Layer_1" xmlns="http://www.w3.org/2000/svg" viewBox="0 0 500 500"><defs><style>.cls-1{fill:#d8be79;}.cls-2{fill:#dac07a;}</style></defs><g><path class="cls-2" d="M154.44,218.12c.36-1.05,2.8-1.9,4.31-1.91,1.63,0,3.3,.99,4.87,1.73,5.83,2.75,11.51,5.87,17.47,8.3,7.02,2.86,14.39,2.51,21.9,2.08,6.74-.38,12.48-2.96,19.15-5.42-2.71-2.1-4.9-4.13-7.4-5.67-4.58-2.85-8.43-6.4-10.39-11.44-1.45-3.99-4.38-7.28-8.17-9.19-3.86-2.08-7.87-4.5-10.71-7.73-4.02-4.56-6.46-10.24-7.8-16.32-.65-2.94,.37-4.28,3.32-4.72,2.72-.4,4.64,1.25,6.92,2.04,13.25,4.63,26.45,9.26,39.75,13.58,17.06,5.54,34.29,10.59,50.21,19.14,1.53,.88,3.18,1.54,4.9,1.95,5.69,1.13,11.39,2.11,17.12,2.95,.73,.11,2.04-.72,2.41-1.45,1.58-3.26,2.97-6.63,4.31-10,2.23-5.66,5.49-10.73,10.74-13.76,4.7-2.78,9.76-4.91,15.03-6.32,5.38-1.34,11.03-2.28,16.76-.93,3.85,.93,7.83,1.9,11.68,1.73,4.64-.22,9.25-1.57,13.85-2.56,3.01-.65,4.82,0,5.32,2.97,.42,2.68,.36,5.41-.19,8.06-1.46,7.51-4.72,14.7-3.9,22.61,.17,1.67,.7,3.36,.54,4.99-.68,6.84-3.05,13.11-6.4,19.12-2.6,4.49-4.84,9.18-6.7,14.03-2.34,6.44-3.84,13.11-7.61,19.05-4.39,6.9-10.11,12.53-15.95,18.07-2.83,2.69-6.02,5.37-9.52,6.91-13.72,6.02-27.79,10.59-43.15,7.44-.74-.11-1.5,.09-2.08,.55-1.39,1.28-2.57,2.79-3.9,4.13-6.97,6.99-13.39,14.7-21.08,20.75-9.52,7.47-20.69,12.52-32.1,16.63-11.8,4.26-23.77,8.05-35.65,12.05-10.47,3.54-20.95,3.33-31.41,.04-2.78-.87-4.66-4.29-3.2-6.55,2.28-3.49,4.65-7.31,7.94-9.64,3.9-2.78,8.73-4.34,13.3-6.02,3.18-1.2,5.6-2.62,7.03-5.99,3.22-7.76,8.78-13.17,17.24-15.16,4.06-.95,5.63-3.79,6.57-7.76,1.57-6.66,3.82-13.33,11.65-15.15,3.93-.92,5.32-3.61,6.97-6.76,3.58-6.85,6.89-14.34,16.46-14.36,1.49,0,3.35,.31,4.38,1.2,.89,.8,1.57,3.17,1.03,3.91-1.04,1.26-2.58,2-4.22,2.02-2.34-.22-4.6,.96-5.75,3.01-2.35,3.72-4.29,7.69-6.58,11.44-.74,1.28-1.81,2.35-3.08,3.1-1.87,1.01-4.22,1.2-5.97,2.3-4.88,3.01-7.42,7.72-8.39,13.29-.57,3.26-.67,6.73-4.88,7.72-1.42,.33-2.75,1.07-4.16,1.45-8.11,2.18-12.92,7.66-15.81,15.3-1.32,3.49-2.87,7.08-7.63,6.97-7.56-.16-12.65,4.14-17.53,9.46,5.58,1.97,11.6,2.32,17.37,.99,7.55-1.64,14.99-3.75,22.28-6.3,9.45-3.25,18.67-7.17,28.04-10.62,11.17-4.07,21.24-10.69,29.42-19.31,3.52-3.68,7.05-7.35,10.49-11.1,6.14-6.58,10.57-14.56,12.89-23.25,.93-3.49,1.32-7.17,2.55-10.54,.53-1.43,2.47-2.89,4.02-3.26,2.29-.55,2.26,2.04,2.34,3.31,.17,2.76,.2,5.67-.5,8.31-1.45,5.47-3.4,10.84-5.24,16.5,2.04,.2,4.22,.75,6.28,.6,5.2-.41,10.4-.98,15.56-1.81,13.54-2.11,22.96-10.8,31.27-20.65,5-5.97,8.67-12.94,10.76-20.45,1.77-6.17,4.43-12.09,6.93-18.03,.94-2.23,2.7-4.1,3.84-6.26,2.92-5.57,4.27-11.44,3.55-17.82-.76-6.81,.48-13.39,2.96-19.77,.25-.64,.16-1.81-.27-2.2s-1.53-.45-2.29-.34c-2.51,.37-5.02,1.39-7.49,1.27-7.83-.36-15.6-1.38-23.42-1.65-9.84-.34-16.8,4.82-21.19,13.15-2.82,5.33-4.47,11.28-6.79,16.86-1.43,3.45-5.6,5.42-8.84,3.99-7.98-3.51-16.17-5.14-24.81-3.37-8.06,1.65-16.33,2.73-24.09,5.3-9.64,3.19-18.78,7.94-28.35,11.44-11.16,4.11-22.39,8.05-34.77,6.19-9.87-1.48-19.15-4.18-27.52-9.7-1.89-1.24-4.08-2.24-5.5-3.9-1-1.16-1.72-3.49-1.25-4.85Zm74.33,.94c.9,.64,2.64,1.01,3.55,.6,11.1-5.32,22.48-9.77,34.63-12.05,.6-.12,1.17-.6,2.46-1.31-4.04-1.72-7.43-3.44-10.98-4.64-19.31-6.49-38.67-12.83-57.99-19.27-4.44-1.48-8.77-3.28-13.15-4.93l-.7,.6c.66,1.12,1.13,2.41,1.99,3.33,4.14,4.42,8.49,8.56,14.39,10.7,3.36,1.2,5.52,4.12,6.4,7.34,1.56,5.77,5.14,9.42,10.06,12.42,3.31,1.98,6.11,4.9,9.34,7.2Z"/><path class="cls-2" d="M279.37,181.72c2.73-2.41,5.57-4.82,8.71-6.55,8.92-4.93,18.07-9.43,27.04-14.27,9.82-5.29,20.28-8.9,30.9-12.09,3.43-1.03,6.92-1.81,11.23-2.93,.1-.03,.2,0,.27,.07,.92,.94,2.41,1.95,2.86,3.29,.4,1.53,.07,3.17-.89,4.43-6.28,6.92-14.62,11.02-22.68,15.24-10.43,5.48-21.21,10.3-32.07,14.88-6.63,2.79-13.7,4.68-20.63,6.76-2.48,.75-4.93,.31-6.43-2.27-1.57-2.76-.24-4.93,1.67-6.56Zm63.64-25.27c-17.13,6.21-33.66,13.7-48.98,23.67-.13,.09-.16,.27-.07,.39,.07,.1,.2,.15,.32,.11,16.95-6.58,33.81-13.37,48.98-23.66,.14-.08,.19-.25,.11-.38-.07-.13-.23-.18-.36-.12Z"/><path class="cls-2" d="M168.44,250.75c1.81-.49,3.21-1.56,2.35-4.22s-2.46-3.01-4.74-2.68c-3.99,.6-7.96,1.44-11.97,1.64-6.11,.31-11.8-1.73-17.32-4.17-3.41-1.52-6.77-3.17-10.14-4.78-.36-.16-.75-.54-1.05-.48-1.94,.44-4.14,.6-5.63,1.68-.6,.43,.17,3.23,.89,4.66,.6,1.13,1.92,2,3.1,2.67,6.63,3.75,13.5,6.78,21.01,8.15,2.52,.46,5.11,.51,7.67,.75"/><path class="cls-2" d="M150.81,280.37c8.11,.8,15.54-.86,22.06-5.89,2.02-1.56,4.26-2.88,6.07-4.66,1.76-1.64,1.95-4.37,.42-6.24-.66-.82-3.21-1.02-4.32-.43-3.16,1.77-6.18,3.79-9.03,6.02-5.46,4.1-11.61,3.85-17.89,3.17-3.64-.47-7.3-.72-10.97-.74-.94,0-2.57,1.69-2.63,2.69-.11,1.72,.22,3.91,2.6,4.38"/></g><path id="Path_13" class="cls-1" d="M250,485.67c-130.16,0-235.67-105.51-235.67-235.67S119.84,14.33,250,14.33s235.67,105.51,235.67,235.67h0c-.15,130.09-105.57,235.52-235.67,235.67m0-448.11c-117.33,0-212.45,95.12-212.45,212.45s95.12,212.45,212.45,212.45,212.45-95.12,212.45-212.45c-.13-117.28-95.17-212.32-212.45-212.45"/></svg>